<svg id="Error" xmlns="http://www.w3.org/2000/svg" width="30" height="26.68" viewBox="0 0 30 26.68">
  <path id="Error-2" data-name="Error" d="M7541.583,287.7h0l-11.667-20.01h0a3.331,3.331,0,0,0-5.758,0h0l-11.638,19.96,0,0-.027.048h0a3.335,3.335,0,0,0,2.879,5.015H7538.7a3.335,3.335,0,0,0,2.879-5.015Z" transform="translate(-7512.037 -266.036)" fill="#cd3c14"/>
  <path id="Error-3" data-name="Error" d="M7532.193,287.312a1.372,1.372,0,0,1-1.939,0l-3.217-3.219-3.217,3.219a1.371,1.371,0,0,1-1.939-1.94l3.217-3.219-3.1-3.1a1.371,1.371,0,1,1,1.939-1.94l3.1,3.1,3.1-3.1a1.371,1.371,0,1,1,1.938,1.94l-3.1,3.1,3.217,3.219A1.373,1.373,0,0,1,7532.193,287.312Z" transform="translate(-7512.037 -266.036)" fill="#fff"/>
</svg>
