<svg id="Success" xmlns="http://www.w3.org/2000/svg" width="30" height="30" viewBox="0 0 30 30">
  <g id="Success-2" data-name="Success" transform="translate(-9888.871 -185.061)">
    <path id="Shape_2" data-name="Shape 2" d="M9903.871,185.061a15,15,0,1,0,15,15A15,15,0,0,0,9903.871,185.061Z" fill="#32c832" fill-rule="evenodd"/>
  </g>
  <g id="Success-3" data-name="Success" transform="translate(-9888.871 -185.061)">
    <path id="Shape_2-2" data-name="Shape 2" d="M9911.708,194.413l-8.987,11.294h0a1.4,1.4,0,0,1-2.191,0h0l-4.494-5.647h0a1.415,1.415,0,0,1,.1-1.88l.562-.565a1.4,1.4,0,0,1,1.907-.073h0l2.736,3.048,8.309-8.089h0a1.394,1.394,0,0,1,.96-.382,1.413,1.413,0,0,1,1.1,2.293Z" fill="#fff" fill-rule="evenodd"/>
  </g>
</svg>
